<?xml version="1.0" encoding="UTF-8"?>
<!DOCTYPE svg PUBLIC "-//W3C//DTD SVG 1.1//EN" "http://www.w3.org/Graphics/SVG/1.1/DTD/svg11.dtd">
<!-- Creator: CorelDRAW (Versión de evaluación) -->
<svg xmlns="http://www.w3.org/2000/svg" xml:space="preserve" width="537px" height="537px" version="1.1" shape-rendering="geometricPrecision" text-rendering="geometricPrecision" image-rendering="optimizeQuality" fill-rule="evenodd" clip-rule="evenodd"
viewBox="0 0 96.29 96.29"
 xmlns:xlink="http://www.w3.org/1999/xlink"
 xmlns:xodm="http://www.corel.com/coreldraw/odm/2003">
 <g id="Capa_x0020_1">
  <metadata id="CorelCorpID_0Corel-Layer"/>
  <g id="_2364203767840">
   <rect fill="white" width="96.29" height="96.29" rx="15.79" ry="15.79"/>
   <g>
    <polygon fill="red" points="44.13,25.37 50.7,25.37 50.7,30.05 47.41,31.47 44.13,30.05 "/>
    <rect fill="#666666" x="26.88" y="41.78" width="5.43" height="4.78"/>
    <rect fill="#666666" x="62.6" y="41.78" width="5.43" height="4.78"/>
    <polygon fill="#666666" points="54.09,29.82 25,41.78 32.31,43.61 54.09,34.52 "/>
    <polygon fill="#666666" points="40.94,29.82 70.04,41.78 62.73,43.61 40.94,34.52 "/>
    <path fill="black" fill-rule="nonzero" d="M13.05 50.02c-0.24,0 -0.29,0.14 -0.18,0.34l4.95 8.99c0.48,0.91 0.94,1.13 1.72,1.13l0.88 0c0.63,0 1.09,-0.22 1.59,-1.13l4.89 -8.99c0.1,-0.2 0.06,-0.34 -0.18,-0.34l-1.93 0c-0.2,0 -0.27,0.04 -0.35,0.19l-4.32 8.05c-0.04,0.07 -0.1,0.1 -0.18,0.1l-0.07 0c-0.08,0 -0.14,-0.03 -0.18,-0.1l-4.35 -8.05c-0.08,-0.15 -0.15,-0.19 -0.35,-0.19l-1.94 0zm15.43 0c-0.22,0 -0.33,0.1 -0.33,0.32l0 6.2c0,2.87 1.15,3.94 4.19,3.94l6.13 0c0.21,0 0.33,-0.1 0.33,-0.33l0 -1.46c0,-0.23 -0.12,-0.33 -0.33,-0.33l-6.06 0c-1.54,0 -1.98,-0.46 -1.98,-2.05l0 -5.97c0,-0.22 -0.11,-0.32 -0.33,-0.32l-1.62 0zm12.98 0c-1.03,0 -1.3,0.37 -1.3,1.55l0 8.58c0,0.23 0.11,0.33 0.33,0.33l1.57 0c0.22,0 0.33,-0.1 0.33,-0.33l0 -7.8c0,-0.11 0.04,-0.15 0.13,-0.15l0.14 0c0.1,0 0.15,0.03 0.19,0.12l2.92 6.7c0.46,1.12 0.94,1.46 1.91,1.46l0.86 0c0.97,0 1.46,-0.34 1.91,-1.46l2.89 -6.7c0.03,-0.09 0.09,-0.12 0.21,-0.12l0.13 0c0.07,0 0.1,0.04 0.1,0.15l0 7.8c0,0.23 0.12,0.33 0.33,0.33l1.57 0c0.23,0 0.35,-0.1 0.35,-0.33l0 -8.58c0,-1.17 -0.29,-1.55 -1.32,-1.55l-1.66 0c-0.9,0 -1.21,0.17 -1.58,1.13l-3.05 7.18c-0.03,0.09 -0.11,0.13 -0.21,0.13l-0.18 0c-0.09,0 -0.17,-0.04 -0.21,-0.13l-3.07 -7.18c-0.39,-0.96 -0.72,-1.13 -1.6,-1.13l-1.69 0zm19.1 -1.04c-1,0 -1.5,0.65 -1.5,1.83l0 0.91c0,0.84 0.24,1.35 0.86,1.93l0.53 0.52 -1.45 0.75c-0.92,0.48 -1.37,1.32 -1.37,2.54l0 0.87c0,1.44 0.7,2.15 1.96,2.15l2.81 0c1.36,0 1.79,-0.22 2.59,-1.15l0.43 -0.52 1.58 1.49c0.14,0.12 0.26,0.18 0.45,0.18l2.17 0c0.21,0 0.32,-0.27 0.17,-0.42l-3.07 -2.81 2.62 -3.11c0.18,-0.22 0.07,-0.45 -0.21,-0.45l-1.74 0c-0.21,0 -0.31,0.05 -0.42,0.18l-1.72 2.02 -1.45 -1.33 0.69 -0.36c1.03,-0.52 1.35,-1.13 1.35,-2.48l0 -1.2c0,-0.94 -0.56,-1.54 -1.59,-1.54l-3.69 0zm1.48 9.54l-1.41 0c-0.59,0 -0.79,-0.16 -0.79,-0.71l0 -0.42c0,-0.57 0.2,-0.9 0.67,-1.14l1.41 -0.72 2.02 1.9 -0.38 0.44c-0.41,0.5 -0.74,0.65 -1.52,0.65zm-0.84 -6.75l0 -0.36c0,-0.35 0.14,-0.48 0.51,-0.48l1.59 0c0.29,0 0.47,0.15 0.47,0.39l0 0.56c0,0.44 -0.12,0.66 -0.55,0.87l-0.9 0.45 -0.76 -0.7c-0.27,-0.26 -0.36,-0.42 -0.36,-0.73zm13.95 -1.75c-3.03,0 -4.18,1.07 -4.18,3.94l0 6.19c0,0.23 0.1,0.33 0.33,0.33l1.61 0c0.23,0 0.33,-0.1 0.33,-0.33l0 -3.81 8.4 0c0.21,0 0.33,-0.1 0.33,-0.33l0 -1.33c0,-0.21 -0.12,-0.33 -0.33,-0.33l-8.4 0 0 -0.22c0,-1.57 0.45,-2.01 1.99,-2.01l6.5 0c0.21,0 0.33,-0.12 0.33,-0.33l0 -1.45c0,-0.22 -0.12,-0.32 -0.33,-0.32l-6.58 0z"/>
    <path fill="black" fill-rule="nonzero" d="M15.17 62.82c-0.23,0 -0.41,0.09 -0.59,0.43l-1.87 3.43c-0.04,0.08 -0.03,0.13 0.06,0.13l0.75 0c0.08,0 0.1,-0.02 0.13,-0.07l0.37 -0.69 2.73 0 0.38 0.69c0.02,0.05 0.06,0.07 0.13,0.07l0.73 0c0.09,0 0.1,-0.05 0.06,-0.13l-1.88 -3.43c-0.19,-0.34 -0.36,-0.43 -0.66,-0.43l-0.34 0zm-0.75 2.49l0.88 -1.64c0.02,-0.03 0.03,-0.04 0.06,-0.04l0.04 0c0.03,0 0.05,0.01 0.07,0.04l0.88 1.64 -1.93 0zm5.06 -2.49c-0.66,0 -1,0.34 -1,0.93l0 0.42c0,0.64 0.35,1.01 0.99,1.01l2.14 0c0.21,0 0.29,0.08 0.29,0.29l0 0.23c0,0.21 -0.1,0.31 -0.3,0.31l-2.99 0c-0.09,0 -0.13,0.04 -0.13,0.12l0 0.56c0,0.08 0.04,0.12 0.13,0.12l3.15 0c0.66,0 1.01,-0.34 1.01,-0.93l0 -0.46c0,-0.64 -0.36,-1 -0.99,-1l-2.14 0c-0.21,0 -0.3,-0.09 -0.3,-0.29l0 -0.2c0,-0.21 0.1,-0.3 0.3,-0.3l2.86 0c0.08,0 0.13,-0.05 0.13,-0.13l0 -0.55c0,-0.09 -0.05,-0.13 -0.13,-0.13l-3.02 0zm5.5 0c-1.16,0 -1.6,0.42 -1.6,1.51l0 0.98c0,1.09 0.44,1.5 1.6,1.5l1.76 0c1.15,0 1.59,-0.41 1.59,-1.5l0 -0.98c0,-1.1 -0.44,-1.51 -1.59,-1.51l-1.76 0zm-0.73 1.57c0,-0.6 0.17,-0.76 0.76,-0.76l1.69 0c0.59,0 0.76,0.16 0.76,0.76l0 0.85c0,0.6 -0.17,0.77 -0.76,0.77l-1.69 0c-0.59,0 -0.76,-0.17 -0.76,-0.77l0 -0.85zm6.35 -1.57c-1.16,0 -1.59,0.41 -1.59,1.51l0 0.98c0,1.09 0.43,1.5 1.59,1.5l2.57 0c0.08,0 0.12,-0.04 0.12,-0.12l0 -0.56c0,-0.09 -0.04,-0.13 -0.12,-0.13l-2.54 0c-0.59,0 -0.76,-0.17 -0.76,-0.78l0 -0.81c0,-0.6 0.17,-0.78 0.76,-0.78l2.54 0c0.08,0 0.12,-0.04 0.12,-0.12l0 -0.56c0,-0.09 -0.04,-0.13 -0.12,-0.13l-2.57 0zm3.43 0c-0.08,0 -0.12,0.04 -0.12,0.13l0 3.74c0,0.08 0.04,0.12 0.12,0.12l0.62 0c0.08,0 0.12,-0.04 0.12,-0.12l0 -3.74c0,-0.09 -0.04,-0.13 -0.12,-0.13l-0.62 0zm3.7 0c-0.24,0 -0.42,0.09 -0.6,0.43l-1.87 3.43c-0.04,0.08 -0.02,0.13 0.07,0.13l0.74 0c0.08,0 0.11,-0.02 0.14,-0.07l0.37 -0.69 2.73 0 0.37 0.69c0.03,0.05 0.06,0.07 0.13,0.07l0.73 0c0.09,0 0.11,-0.05 0.07,-0.13l-1.89 -3.43c-0.19,-0.34 -0.36,-0.43 -0.66,-0.43l-0.33 0zm-0.75 2.49l0.87 -1.64c0.02,-0.03 0.04,-0.04 0.07,-0.04l0.03 0c0.03,0 0.05,0.01 0.07,0.04l0.88 1.64 -1.92 0zm4.29 -2.49c-0.12,0 -0.17,0.06 -0.17,0.17l0 3.65c0,0.11 0.05,0.17 0.17,0.17l2.66 0c1.24,0 1.74,-0.49 1.74,-1.61l0 -0.77c0,-1.11 -0.5,-1.61 -1.74,-1.61l-2.66 0zm0.69 0.88c0,-0.05 0.03,-0.07 0.08,-0.07l1.87 0c0.67,0 0.9,0.2 0.9,0.87l0 0.63c0,0.67 -0.23,0.88 -0.9,0.88l-1.87 0c-0.05,0 -0.08,-0.02 -0.08,-0.08l0 -2.23zm5.98 -0.88c-1.16,0 -1.6,0.42 -1.6,1.51l0 0.98c0,1.09 0.44,1.5 1.6,1.5l1.75 0c1.16,0 1.6,-0.41 1.6,-1.5l0 -0.98c0,-1.1 -0.44,-1.51 -1.6,-1.51l-1.75 0zm-0.73 1.57c0,-0.6 0.16,-0.76 0.76,-0.76l1.69 0c0.59,0 0.76,0.16 0.76,0.76l0 0.85c0,0.6 -0.17,0.77 -0.76,0.77l-1.69 0c-0.6,0 -0.76,-0.17 -0.76,-0.77l0 -0.85zm5.73 -1.57c-0.65,0 -1,0.34 -1,0.93l0 0.42c0,0.64 0.35,1.01 0.99,1.01l2.14 0c0.21,0 0.3,0.08 0.3,0.29l0 0.23c0,0.21 -0.11,0.31 -0.31,0.31l-2.99 0c-0.08,0 -0.12,0.04 -0.12,0.12l0 0.56c0,0.08 0.04,0.12 0.12,0.12l3.16 0c0.66,0 1.01,-0.34 1.01,-0.93l0 -0.46c0,-0.64 -0.36,-1 -1,-1l-2.13 0c-0.21,0 -0.3,-0.09 -0.3,-0.29l0 -0.2c0,-0.21 0.09,-0.3 0.3,-0.3l2.86 0c0.07,0 0.12,-0.05 0.12,-0.13l0 -0.55c0,-0.09 -0.05,-0.13 -0.12,-0.13l-3.03 0zm6.52 -0.65c-0.07,0 -0.1,0.03 -0.1,0.1l0 5.27c0,0.07 0.03,0.1 0.1,0.1l0.34 0c0.07,0 0.1,-0.03 0.1,-0.1l0 -5.27c0,-0.07 -0.03,-0.1 -0.1,-0.1l-0.34 0zm4.6 0.65c-0.66,0 -1,0.34 -1,0.93l0 0.42c0,0.64 0.35,1.01 0.99,1.01l2.14 0c0.21,0 0.29,0.08 0.29,0.29l0 0.23c0,0.21 -0.1,0.31 -0.3,0.31l-2.99 0c-0.09,0 -0.13,0.04 -0.13,0.12l0 0.56c0,0.08 0.04,0.12 0.13,0.12l3.16 0c0.65,0 1.01,-0.34 1.01,-0.93l0 -0.46c0,-0.64 -0.36,-1 -1,-1l-2.13 0c-0.22,0 -0.31,-0.09 -0.31,-0.29l0 -0.2c0,-0.21 0.1,-0.3 0.31,-0.3l2.85 0c0.08,0 0.13,-0.05 0.13,-0.13l0 -0.55c0,-0.09 -0.05,-0.13 -0.13,-0.13l-3.02 0zm4.05 3.19c-0.08,0 -0.12,0.04 -0.12,0.13l0 0.55c0,0.08 0.04,0.12 0.12,0.12l0.56 0c0.09,0 0.13,-0.04 0.13,-0.12l0 -0.55c0,-0.09 -0.04,-0.13 -0.13,-0.13l-0.56 0zm3.62 -3.19c-0.24,0 -0.42,0.09 -0.6,0.43l-1.87 3.43c-0.04,0.08 -0.02,0.13 0.07,0.13l0.75 0c0.07,0 0.1,-0.02 0.13,-0.07l0.37 -0.69 2.73 0 0.37 0.69c0.03,0.05 0.06,0.07 0.13,0.07l0.73 0c0.09,0 0.11,-0.05 0.07,-0.13l-1.89 -3.43c-0.19,-0.34 -0.36,-0.43 -0.66,-0.43l-0.33 0zm-0.75 2.49l0.87 -1.64c0.02,-0.03 0.04,-0.04 0.07,-0.04l0.03 0c0.03,0 0.05,0.01 0.07,0.04l0.88 1.64 -1.92 0zm4.22 0.7c-0.09,0 -0.13,0.04 -0.13,0.13l0 0.55c0,0.08 0.04,0.12 0.13,0.12l0.56 0c0.08,0 0.12,-0.04 0.12,-0.12l0 -0.55c0,-0.09 -0.04,-0.13 -0.12,-0.13l-0.56 0zm2.86 -3.19c-1.16,0 -1.59,0.41 -1.59,1.51l0 0.98c0,1.09 0.43,1.5 1.59,1.5l2.57 0c0.08,0 0.12,-0.04 0.12,-0.12l0 -0.56c0,-0.09 -0.04,-0.13 -0.12,-0.13l-2.54 0c-0.59,0 -0.76,-0.17 -0.76,-0.78l0 -0.81c0,-0.6 0.17,-0.78 0.76,-0.78l2.54 0c0.08,0 0.12,-0.04 0.12,-0.12l0 -0.56c0,-0.09 -0.04,-0.13 -0.12,-0.13l-2.57 0zm3.41 3.19c-0.08,0 -0.12,0.04 -0.12,0.13l0 0.55c0,0.08 0.04,0.12 0.12,0.12l0.56 0c0.09,0 0.13,-0.04 0.13,-0.12l0 -0.55c0,-0.09 -0.04,-0.13 -0.13,-0.13l-0.56 0z"/>
    <path fill="black" fill-rule="nonzero" d="M12.93 67.55c-0.04,0 -0.05,0.02 -0.05,0.05l0 1.46c0,0.04 0.01,0.05 0.05,0.05l0.24 0c0.03,0 0.05,-0.01 0.05,-0.05l0 -1.46c0,-0.03 -0.02,-0.05 -0.05,-0.05l-0.24 0zm0.79 0c-0.14,0 -0.2,0.06 -0.2,0.23l0 1.28c0,0.04 0.01,0.05 0.05,0.05l0.24 0c0.03,0 0.04,-0.01 0.04,-0.05l0 -1.16c0,-0.02 0.01,-0.02 0.02,-0.02l0.02 0c0.02,0 0.02,0 0.03,0.01l0.83 1.09c0.06,0.1 0.09,0.13 0.25,0.13l0.2 0c0.14,0 0.2,-0.05 0.2,-0.23l0 -1.28c0,-0.03 -0.01,-0.05 -0.05,-0.05l-0.24 0c-0.03,0 -0.05,0.02 -0.05,0.05l0 1.17c0,0.01 0,0.02 -0.01,0.02l-0.02 0c-0.02,0 -0.03,-0.01 -0.03,-0.02l-0.82 -1.09c-0.08,-0.1 -0.1,-0.13 -0.26,-0.13l-0.2 0zm2.59 0c-0.45,0 -0.63,0.16 -0.63,0.59l0 0.38c0,0.43 0.18,0.59 0.63,0.59l0.9 0c0.18,0 0.28,-0.09 0.28,-0.34l0 -0.53c0,-0.04 -0.03,-0.07 -0.07,-0.07l-0.93 0c-0.03,0 -0.05,0.02 -0.05,0.05l0 0.2c0,0.03 0.02,0.05 0.05,0.05l0.65 0c0.02,0 0.03,0.01 0.03,0.03l0 0.17c0,0.1 -0.04,0.13 -0.11,0.13l-0.74 0c-0.23,0 -0.3,-0.07 -0.3,-0.3l0 -0.33c0,-0.23 0.07,-0.3 0.3,-0.3l1.12 0c0.03,0 0.05,-0.02 0.05,-0.05l0 -0.22c0,-0.03 -0.02,-0.05 -0.05,-0.05l-1.13 0zm2.07 0c-0.46,0 -0.63,0.16 -0.63,0.59l0 0.38c0,0.43 0.17,0.59 0.63,0.59l0.98 0c0.03,0 0.05,-0.01 0.05,-0.05l0 -0.21c0,-0.03 -0.02,-0.05 -0.05,-0.05l-0.98 0c-0.23,0 -0.29,-0.07 -0.29,-0.3l0 -0.03 1.26 0c0.03,0 0.04,-0.01 0.04,-0.05l0 -0.19c0,-0.04 -0.01,-0.05 -0.04,-0.05l-1.26 0 0 -0.01c0,-0.24 0.06,-0.3 0.29,-0.3l0.98 0c0.03,0 0.05,-0.02 0.05,-0.05l0 -0.22c0,-0.03 -0.02,-0.05 -0.05,-0.05l-0.98 0zm1.49 0c-0.15,0 -0.2,0.06 -0.2,0.23l0 1.28c0,0.04 0.01,0.05 0.05,0.05l0.23 0c0.04,0 0.05,-0.01 0.05,-0.05l0 -1.16c0,-0.02 0.01,-0.02 0.02,-0.02l0.02 0c0.02,0 0.02,0 0.03,0.01l0.82 1.09c0.07,0.1 0.1,0.13 0.26,0.13l0.2 0c0.14,0 0.2,-0.05 0.2,-0.23l0 -1.28c0,-0.03 -0.01,-0.05 -0.05,-0.05l-0.24 0c-0.03,0 -0.05,0.02 -0.05,0.05l0 1.17c0,0.01 0,0.02 -0.01,0.02l-0.02 0c-0.02,0 -0.03,-0.01 -0.03,-0.02l-0.82 -1.09c-0.08,-0.1 -0.1,-0.13 -0.26,-0.13l-0.2 0zm2.03 0c-0.03,0 -0.05,0.02 -0.05,0.05l0 1.46c0,0.04 0.02,0.05 0.05,0.05l0.24 0c0.03,0 0.05,-0.01 0.05,-0.05l0 -1.46c0,-0.03 -0.02,-0.05 -0.05,-0.05l-0.24 0zm1.2 0c-0.46,0 -0.63,0.16 -0.63,0.59l0 0.38c0,0.43 0.17,0.59 0.63,0.59l0.98 0c0.03,0 0.05,-0.01 0.05,-0.05l0 -0.21c0,-0.03 -0.02,-0.05 -0.05,-0.05l-0.98 0c-0.23,0 -0.29,-0.07 -0.29,-0.3l0 -0.03 1.26 0c0.03,0 0.04,-0.01 0.04,-0.05l0 -0.19c0,-0.04 -0.01,-0.05 -0.04,-0.05l-1.26 0 0 -0.01c0,-0.24 0.06,-0.3 0.29,-0.3l0.98 0c0.03,0 0.05,-0.02 0.05,-0.05l0 -0.22c0,-0.03 -0.02,-0.05 -0.05,-0.05l-0.98 0zm1.35 0c-0.04,0 -0.06,0.02 -0.06,0.07l0 1.44c0,0.04 0.01,0.05 0.05,0.05l0.24 0c0.03,0 0.05,-0.01 0.05,-0.05l0 -0.43 0.7 0 0.36 0.45c0.02,0.03 0.03,0.03 0.06,0.03l0.3 0c0.04,0 0.05,-0.03 0.03,-0.05l-0.37 -0.47c0.22,-0.04 0.32,-0.19 0.32,-0.45l0 -0.13c0,-0.31 -0.15,-0.46 -0.48,-0.46l-1.2 0zm0.28 0.79l0 -0.45c0,-0.02 0.01,-0.03 0.03,-0.03l0.82 0c0.15,0 0.21,0.06 0.21,0.2l0 0.09c0,0.13 -0.06,0.19 -0.21,0.19l-0.85 0zm1.73 -0.79c-0.04,0 -0.05,0.02 -0.05,0.05l0 1.46c0,0.04 0.01,0.05 0.05,0.05l0.24 0c0.03,0 0.05,-0.01 0.05,-0.05l0 -1.46c0,-0.03 -0.02,-0.05 -0.05,-0.05l-0.24 0zm0.2 -0.48c-0.03,0 -0.05,0.01 -0.07,0.04l-0.2 0.33c-0.01,0.03 0,0.04 0.04,0.04l0.17 0c0.03,0 0.04,-0.01 0.06,-0.04l0.23 -0.33c0.02,-0.03 0,-0.04 -0.03,-0.04l-0.2 0zm1.25 0.48c-0.09,0 -0.16,0.03 -0.23,0.17l-0.74 1.34c-0.01,0.03 -0.01,0.05 0.03,0.05l0.29 0c0.03,0 0.04,0 0.05,-0.02l0.15 -0.28 1.07 0 0.15 0.28c0.01,0.02 0.02,0.02 0.05,0.02l0.28 0c0.04,0 0.04,-0.02 0.03,-0.05l-0.74 -1.34c-0.07,-0.14 -0.14,-0.17 -0.26,-0.17l-0.13 0zm-0.29 0.97l0.34 -0.64c0.01,-0.01 0.01,-0.01 0.02,-0.01l0.02 0c0.01,0 0.02,0 0.02,0.01l0.35 0.64 -0.75 0zm2.3 -0.29c-0.03,0 -0.04,0.01 -0.04,0.04l0 0.16c0,0.02 0.01,0.04 0.04,0.04l0.67 0c0.03,0 0.04,-0.02 0.04,-0.04l0 -0.16c0,-0.03 -0.01,-0.04 -0.04,-0.04l-0.67 0zm2.26 -0.68c-0.45,0 -0.62,0.16 -0.62,0.59l0 0.38c0,0.43 0.17,0.59 0.62,0.59l1.01 0c0.03,0 0.05,-0.01 0.05,-0.05l0 -0.21c0,-0.04 -0.02,-0.05 -0.05,-0.05l-0.99 0c-0.23,0 -0.3,-0.07 -0.3,-0.31l0 -0.32c0,-0.23 0.07,-0.3 0.3,-0.3l0.99 0c0.03,0 0.05,-0.02 0.05,-0.05l0 -0.22c0,-0.03 -0.02,-0.05 -0.05,-0.05l-1.01 0zm1.91 0c-0.46,0 -0.63,0.16 -0.63,0.59l0 0.38c0,0.43 0.17,0.59 0.63,0.59l0.68 0c0.46,0 0.63,-0.16 0.63,-0.59l0 -0.38c0,-0.43 -0.17,-0.59 -0.63,-0.59l-0.68 0zm-0.29 0.62c0,-0.24 0.07,-0.3 0.3,-0.3l0.66 0c0.23,0 0.3,0.06 0.3,0.3l0 0.33c0,0.23 -0.07,0.3 -0.3,0.3l-0.66 0c-0.23,0 -0.3,-0.07 -0.3,-0.3l0 -0.33zm2.08 -0.62c-0.14,0 -0.2,0.06 -0.2,0.23l0 1.28c0,0.04 0.02,0.05 0.05,0.05l0.24 0c0.03,0 0.05,-0.01 0.05,-0.05l0 -1.16c0,-0.02 0,-0.02 0.02,-0.02l0.02 0c0.01,0 0.02,0 0.03,0.01l0.82 1.09c0.07,0.1 0.1,0.13 0.26,0.13l0.19 0c0.15,0 0.21,-0.05 0.21,-0.23l0 -1.28c0,-0.03 -0.02,-0.05 -0.05,-0.05l-0.24 0c-0.04,0 -0.05,0.02 -0.05,0.05l0 1.17c0,0.01 -0.01,0.02 -0.02,0.02l-0.02 0c-0.01,0 -0.02,-0.01 -0.03,-0.02l-0.82 -1.09c-0.07,-0.1 -0.1,-0.13 -0.26,-0.13l-0.2 0zm2.35 0c-0.26,0 -0.39,0.13 -0.39,0.37l0 0.16c0,0.25 0.14,0.39 0.39,0.39l0.83 0c0.09,0 0.12,0.04 0.12,0.12l0 0.09c0,0.08 -0.04,0.12 -0.12,0.12l-1.17 0c-0.03,0 -0.05,0.02 -0.05,0.05l0 0.21c0,0.04 0.02,0.05 0.05,0.05l1.24 0c0.25,0 0.39,-0.13 0.39,-0.36l0 -0.18c0,-0.25 -0.14,-0.39 -0.39,-0.39l-0.83 0c-0.09,0 -0.12,-0.04 -0.12,-0.12l0 -0.07c0,-0.09 0.04,-0.12 0.12,-0.12l1.11 0c0.04,0 0.05,-0.02 0.05,-0.05l0 -0.22c0,-0.03 -0.01,-0.05 -0.05,-0.05l-1.18 0zm1.5 0c-0.03,0 -0.05,0.02 -0.05,0.05l0 0.22c0,0.03 0.02,0.05 0.05,0.05l0.7 0 0 1.19c0,0.04 0.02,0.05 0.05,0.05l0.25 0c0.03,0 0.04,-0.01 0.04,-0.05l0 -1.19 0.71 0c0.03,0 0.05,-0.02 0.05,-0.05l0 -0.22c0,-0.03 -0.02,-0.05 -0.05,-0.05l-1.75 0zm2.06 0c-0.04,0 -0.06,0.02 -0.06,0.07l0 1.44c0,0.04 0.01,0.05 0.05,0.05l0.24 0c0.03,0 0.05,-0.01 0.05,-0.05l0 -0.43 0.7 0 0.36 0.45c0.02,0.03 0.03,0.03 0.06,0.03l0.3 0c0.04,0 0.05,-0.03 0.03,-0.05l-0.37 -0.47c0.22,-0.04 0.32,-0.19 0.32,-0.45l0 -0.13c0,-0.31 -0.15,-0.46 -0.48,-0.46l-1.2 0zm0.28 0.79l0 -0.45c0,-0.02 0.01,-0.03 0.03,-0.03l0.82 0c0.15,0 0.21,0.06 0.21,0.2l0 0.09c0,0.13 -0.06,0.19 -0.21,0.19l-0.85 0zm1.71 -0.79c-0.04,0 -0.05,0.02 -0.05,0.05l0 0.92c0,0.43 0.17,0.59 0.62,0.59l0.64 0c0.46,0 0.63,-0.16 0.63,-0.59l0 -0.92c0,-0.03 -0.02,-0.05 -0.05,-0.05l-0.25 0c-0.03,0 -0.04,0.02 -0.04,0.05l0 0.89c0,0.24 -0.07,0.31 -0.3,0.31l-0.62 0c-0.23,0 -0.29,-0.07 -0.29,-0.31l0 -0.89c0,-0.03 -0.02,-0.05 -0.05,-0.05l-0.24 0zm2.74 0c-0.45,0 -0.63,0.16 -0.63,0.59l0 0.38c0,0.43 0.18,0.59 0.63,0.59l1 0c0.04,0 0.05,-0.01 0.05,-0.05l0 -0.21c0,-0.04 -0.01,-0.05 -0.05,-0.05l-0.99 0c-0.23,0 -0.3,-0.07 -0.3,-0.31l0 -0.32c0,-0.23 0.07,-0.3 0.3,-0.3l0.99 0c0.04,0 0.05,-0.02 0.05,-0.05l0 -0.22c0,-0.03 -0.01,-0.05 -0.05,-0.05l-1 0zm1.9 0c-0.45,0 -0.62,0.16 -0.62,0.59l0 0.38c0,0.43 0.17,0.59 0.62,0.59l1.01 0c0.03,0 0.05,-0.01 0.05,-0.05l0 -0.21c0,-0.04 -0.02,-0.05 -0.05,-0.05l-1 0c-0.23,0 -0.29,-0.07 -0.29,-0.31l0 -0.32c0,-0.23 0.06,-0.3 0.29,-0.3l1 0c0.03,0 0.05,-0.02 0.05,-0.05l0 -0.22c0,-0.03 -0.02,-0.05 -0.05,-0.05l-1.01 0zm1.35 0c-0.04,0 -0.05,0.02 -0.05,0.05l0 1.46c0,0.04 0.01,0.05 0.05,0.05l0.24 0c0.03,0 0.05,-0.01 0.05,-0.05l0 -1.46c0,-0.03 -0.02,-0.05 -0.05,-0.05l-0.24 0zm1.19 0c-0.45,0 -0.62,0.16 -0.62,0.59l0 0.38c0,0.43 0.17,0.59 0.62,0.59l0.69 0c0.45,0 0.63,-0.16 0.63,-0.59l0 -0.38c0,-0.43 -0.18,-0.59 -0.63,-0.59l-0.69 0zm0.43 -0.48c-0.04,0 -0.06,0.01 -0.07,0.04l-0.2 0.33c-0.02,0.03 0,0.04 0.03,0.04l0.17 0c0.04,0 0.05,-0.01 0.07,-0.04l0.23 -0.33c0.01,-0.03 0,-0.04 -0.03,-0.04l-0.2 0zm-0.71 1.1c0,-0.24 0.06,-0.3 0.29,-0.3l0.67 0c0.23,0 0.29,0.06 0.29,0.3l0 0.33c0,0.23 -0.06,0.3 -0.29,0.3l-0.67 0c-0.23,0 -0.29,-0.07 -0.29,-0.3l0 -0.33zm2.08 -0.62c-0.15,0 -0.2,0.06 -0.2,0.23l0 1.28c0,0.04 0.01,0.05 0.05,0.05l0.24 0c0.03,0 0.04,-0.01 0.04,-0.05l0 -1.16c0,-0.02 0.01,-0.02 0.02,-0.02l0.02 0c0.02,0 0.02,0 0.03,0.01l0.83 1.09c0.06,0.1 0.09,0.13 0.25,0.13l0.2 0c0.14,0 0.2,-0.05 0.2,-0.23l0 -1.28c0,-0.03 -0.01,-0.05 -0.05,-0.05l-0.24 0c-0.03,0 -0.05,0.02 -0.05,0.05l0 1.17c0,0.01 0,0.02 -0.01,0.02l-0.02 0c-0.02,0 -0.03,-0.01 -0.03,-0.02l-0.82 -1.09c-0.08,-0.1 -0.1,-0.13 -0.26,-0.13l-0.2 0zm2.67 0.68c-0.03,0 -0.04,0.01 -0.04,0.04l0 0.16c0,0.02 0.01,0.04 0.04,0.04l0.67 0c0.03,0 0.04,-0.02 0.04,-0.04l0 -0.16c0,-0.03 -0.01,-0.04 -0.04,-0.04l-0.67 0zm1.85 -0.68c-0.15,0 -0.19,0.06 -0.19,0.23l0 1.28c0,0.04 0.01,0.05 0.05,0.05l0.23 0c0.03,0 0.05,-0.01 0.05,-0.05l0 -1.16c0,-0.02 0.01,-0.02 0.02,-0.02l0.02 0c0.02,0 0.02,0 0.03,0.01l0.43 1.01c0.07,0.16 0.15,0.21 0.29,0.21l0.13 0c0.14,0 0.22,-0.05 0.28,-0.21l0.43 -1.01c0.01,-0.01 0.02,-0.01 0.04,-0.01l0.02 0c0.01,0 0.01,0 0.01,0.02l0 1.16c0,0.04 0.02,0.05 0.05,0.05l0.24 0c0.03,0 0.05,-0.01 0.05,-0.05l0 -1.28c0,-0.17 -0.05,-0.23 -0.2,-0.23l-0.25 0c-0.13,0 -0.18,0.03 -0.23,0.17l-0.46 1.07c0,0.02 -0.02,0.02 -0.03,0.02l-0.03 0c-0.01,0 -0.02,0 -0.03,-0.02l-0.46 -1.07c-0.06,-0.14 -0.1,-0.17 -0.24,-0.17l-0.25 0zm3.33 0c-0.09,0 -0.16,0.03 -0.23,0.17l-0.74 1.34c-0.01,0.03 0,0.05 0.03,0.05l0.29 0c0.03,0 0.04,0 0.05,-0.02l0.15 -0.28 1.07 0 0.15 0.28c0.01,0.02 0.02,0.02 0.05,0.02l0.28 0c0.04,0 0.04,-0.02 0.03,-0.05l-0.74 -1.34c-0.07,-0.14 -0.14,-0.17 -0.26,-0.17l-0.13 0zm-0.29 0.97l0.34 -0.64c0.01,-0.01 0.01,-0.01 0.02,-0.01l0.02 0c0.01,0 0.02,0 0.02,0.01l0.35 0.64 -0.75 0zm1.81 -0.97c-0.14,0 -0.2,0.06 -0.2,0.23l0 1.28c0,0.04 0.02,0.05 0.05,0.05l0.24 0c0.03,0 0.05,-0.01 0.05,-0.05l0 -1.16c0,-0.02 0,-0.02 0.02,-0.02l0.02 0c0.01,0 0.02,0 0.02,0.01l0.83 1.09c0.07,0.1 0.09,0.13 0.26,0.13l0.19 0c0.14,0 0.21,-0.05 0.21,-0.23l0 -1.28c0,-0.03 -0.02,-0.05 -0.05,-0.05l-0.24 0c-0.04,0 -0.05,0.02 -0.05,0.05l0 1.17c0,0.01 -0.01,0.02 -0.02,0.02l-0.02 0c-0.01,0 -0.02,-0.01 -0.03,-0.02l-0.82 -1.09c-0.07,-0.1 -0.1,-0.13 -0.26,-0.13l-0.2 0zm1.94 0c-0.04,0 -0.05,0.02 -0.05,0.05l0 0.22c0,0.03 0.01,0.05 0.05,0.05l0.7 0 0 1.19c0,0.04 0.02,0.05 0.05,0.05l0.24 0c0.03,0 0.05,-0.01 0.05,-0.05l0 -1.19 0.7 0c0.03,0 0.05,-0.02 0.05,-0.05l0 -0.22c0,-0.03 -0.02,-0.05 -0.05,-0.05l-1.74 0zm2.56 0c-0.46,0 -0.63,0.16 -0.63,0.59l0 0.38c0,0.43 0.17,0.59 0.63,0.59l0.98 0c0.03,0 0.05,-0.01 0.05,-0.05l0 -0.21c0,-0.03 -0.02,-0.05 -0.05,-0.05l-0.98 0c-0.23,0 -0.29,-0.07 -0.29,-0.3l0 -0.03 1.26 0c0.03,0 0.04,-0.01 0.04,-0.05l0 -0.19c0,-0.04 -0.01,-0.05 -0.04,-0.05l-1.26 0 0 -0.01c0,-0.24 0.06,-0.3 0.29,-0.3l0.98 0c0.03,0 0.05,-0.02 0.05,-0.05l0 -0.22c0,-0.03 -0.02,-0.05 -0.05,-0.05l-0.98 0zm1.49 0c-0.15,0 -0.2,0.06 -0.2,0.23l0 1.28c0,0.04 0.01,0.05 0.05,0.05l0.23 0c0.04,0 0.05,-0.01 0.05,-0.05l0 -1.16c0,-0.02 0.01,-0.02 0.02,-0.02l0.02 0c0.02,0 0.02,0 0.03,0.01l0.82 1.09c0.07,0.1 0.1,0.13 0.26,0.13l0.2 0c0.14,0 0.2,-0.05 0.2,-0.23l0 -1.28c0,-0.03 -0.01,-0.05 -0.05,-0.05l-0.24 0c-0.03,0 -0.05,0.02 -0.05,0.05l0 1.17c0,0.01 0,0.02 -0.01,0.02l-0.02 0c-0.02,0 -0.03,-0.01 -0.03,-0.02l-0.82 -1.09c-0.08,-0.1 -0.1,-0.13 -0.26,-0.13l-0.2 0zm2.03 0c-0.03,0 -0.05,0.02 -0.05,0.05l0 1.46c0,0.04 0.02,0.05 0.05,0.05l0.24 0c0.03,0 0.05,-0.01 0.05,-0.05l0 -1.46c0,-0.03 -0.02,-0.05 -0.05,-0.05l-0.24 0zm0.78 0c-0.15,0 -0.19,0.06 -0.19,0.23l0 1.28c0,0.04 0.01,0.05 0.05,0.05l0.23 0c0.04,0 0.05,-0.01 0.05,-0.05l0 -1.16c0,-0.02 0.01,-0.02 0.02,-0.02l0.02 0c0.02,0 0.02,0 0.03,0.01l0.44 1.01c0.07,0.16 0.14,0.21 0.28,0.21l0.13 0c0.14,0 0.22,-0.05 0.29,-0.21l0.43 -1.01c0,-0.01 0.01,-0.01 0.03,-0.01l0.02 0c0.01,0 0.01,0 0.01,0.02l0 1.16c0,0.04 0.02,0.05 0.05,0.05l0.24 0c0.03,0 0.05,-0.01 0.05,-0.05l0 -1.28c0,-0.17 -0.04,-0.23 -0.2,-0.23l-0.25 0c-0.13,0 -0.18,0.03 -0.23,0.17l-0.46 1.07c0,0.02 -0.01,0.02 -0.03,0.02l-0.03 0c-0.01,0 -0.02,0 -0.03,-0.02l-0.46 -1.07c-0.05,-0.14 -0.1,-0.17 -0.23,-0.17l-0.26 0zm2.52 0c-0.03,0 -0.04,0.02 -0.04,0.05l0 1.46c0,0.04 0.01,0.05 0.04,0.05l0.25 0c0.03,0 0.04,-0.01 0.04,-0.05l0 -1.46c0,-0.03 -0.01,-0.05 -0.04,-0.05l-0.25 0zm1.2 0c-0.45,0 -0.62,0.16 -0.62,0.59l0 0.38c0,0.43 0.17,0.59 0.62,0.59l0.98 0c0.04,0 0.05,-0.01 0.05,-0.05l0 -0.21c0,-0.03 -0.01,-0.05 -0.05,-0.05l-0.98 0c-0.23,0 -0.29,-0.07 -0.29,-0.3l0 -0.03 1.26 0c0.03,0 0.05,-0.01 0.05,-0.05l0 -0.19c0,-0.04 -0.02,-0.05 -0.05,-0.05l-1.26 0 0 -0.01c0,-0.24 0.06,-0.3 0.29,-0.3l0.98 0c0.04,0 0.05,-0.02 0.05,-0.05l0 -0.22c0,-0.03 -0.01,-0.05 -0.05,-0.05l-0.98 0zm1.49 0c-0.14,0 -0.2,0.06 -0.2,0.23l0 1.28c0,0.04 0.02,0.05 0.05,0.05l0.24 0c0.03,0 0.05,-0.01 0.05,-0.05l0 -1.16c0,-0.02 0,-0.02 0.02,-0.02l0.02 0c0.01,0 0.02,0 0.03,0.01l0.82 1.09c0.07,0.1 0.1,0.13 0.26,0.13l0.2 0c0.14,0 0.2,-0.05 0.2,-0.23l0 -1.28c0,-0.03 -0.02,-0.05 -0.05,-0.05l-0.24 0c-0.04,0 -0.05,0.02 -0.05,0.05l0 1.17c0,0.01 -0.01,0.02 -0.02,0.02l-0.02 0c-0.01,0 -0.02,-0.01 -0.03,-0.02l-0.82 -1.09c-0.07,-0.1 -0.1,-0.13 -0.26,-0.13l-0.2 0zm1.94 0c-0.03,0 -0.05,0.02 -0.05,0.05l0 0.22c0,0.03 0.02,0.05 0.05,0.05l0.7 0 0 1.19c0,0.04 0.02,0.05 0.05,0.05l0.24 0c0.04,0 0.05,-0.01 0.05,-0.05l0 -1.19 0.7 0c0.04,0 0.05,-0.02 0.05,-0.05l0 -0.22c0,-0.03 -0.01,-0.05 -0.05,-0.05l-1.74 0zm2.56 0c-0.46,0 -0.63,0.16 -0.63,0.59l0 0.38c0,0.43 0.17,0.59 0.63,0.59l0.69 0c0.45,0 0.62,-0.16 0.62,-0.59l0 -0.38c0,-0.43 -0.17,-0.59 -0.62,-0.59l-0.69 0zm-0.29 0.62c0,-0.24 0.07,-0.3 0.3,-0.3l0.66 0c0.23,0 0.3,0.06 0.3,0.3l0 0.33c0,0.23 -0.07,0.3 -0.3,0.3l-0.66 0c-0.23,0 -0.3,-0.07 -0.3,-0.3l0 -0.33z"/>
   </g>
  </g>
 </g>
</svg>
